
<svg
  version="1.0"
  xmlns="http://www.w3.org/2000/svg"
  xmlns:xlink="http://www.w3.org/1999/xlink"
  width="2400"
  height="1800"
>
  
  <rect
    x="0"
    y="0"
    width="100%"
    height="100%"
    fill="#ffffff"
    fill-opacity="1"
  ></rect>
  <svg
    version="1.0"
    xmlns="http://www.w3.org/2000/svg"
    xmlns:xlink="http://www.w3.org/1999/xlink"
    x="0"
    y="0"
    width="2400"
    height="1800"
    viewBox="0 0 340.000000 250.000000"
    preserveAspectRatio="xMidYMid meet"
    color-interpolation-filters="sRGB"
  >
    <defs><linearGradient id="92" x1="0%" y1="0%" x2="100%" y2="0%"><stop offset="0%" stop-color="#fa71cd"/> <stop offset="100%" stop-color="#9b59b6"/></linearGradient><linearGradient id="93" x1="0%" y1="0%" x2="100%" y2="0%"><stop offset="0%" stop-color="#f9d423"/> <stop offset="100%" stop-color="#f83600"/></linearGradient><linearGradient id="94" x1="0%" y1="0%" x2="100%" y2="0%"><stop offset="0%" stop-color="#0064d2"/> <stop offset="100%" stop-color="#1cb0f6"/></linearGradient><linearGradient id="95" x1="0%" y1="0%" x2="100%" y2="0%"><stop offset="0%" stop-color="#f00978"/> <stop offset="100%" stop-color="#3f51b1"/></linearGradient><linearGradient id="96" x1="0%" y1="0%" x2="100%" y2="0%"><stop offset="0%" stop-color="#7873f5"/> <stop offset="100%" stop-color="#ec77ab"/></linearGradient><linearGradient id="97" x1="0%" y1="0%" x2="100%" y2="0%"><stop offset="0%" stop-color="#f9d423"/> <stop offset="100%" stop-color="#e14fad"/></linearGradient><linearGradient id="98" x1="0%" y1="0%" x2="100%" y2="0%"><stop offset="0%" stop-color="#009efd"/> <stop offset="100%" stop-color="#2af598"/></linearGradient><linearGradient id="99" x1="0%" y1="0%" x2="100%" y2="0%"><stop offset="0%" stop-color="#ffcc00"/> <stop offset="100%" stop-color="#00b140"/></linearGradient><linearGradient id="100" x1="0%" y1="0%" x2="100%" y2="0%"><stop offset="0%" stop-color="#d51007"/> <stop offset="100%" stop-color="#ff8177"/></linearGradient><linearGradient id="102" x1="0%" y1="0%" x2="100%" y2="0%"><stop offset="0%" stop-color="#a2b6df"/> <stop offset="100%" stop-color="#0c3483"/></linearGradient><linearGradient id="103" x1="0%" y1="0%" x2="100%" y2="0%"><stop offset="0%" stop-color="#7ac5d8"/> <stop offset="100%" stop-color="#eea2a2"/></linearGradient><linearGradient id="104" x1="0%" y1="0%" x2="100%" y2="0%"><stop offset="0%" stop-color="#00ecbc"/> <stop offset="100%" stop-color="#007adf"/></linearGradient><linearGradient id="105" x1="0%" y1="0%" x2="100%" y2="0%"><stop offset="0%" stop-color="#b88746"/> <stop offset="100%" stop-color="#fdf5a6"/></linearGradient></defs> <g class="iconmbgsvg" transform="translate(84.3699951171875,56.66474151611328)"><g fill="#000000" hollow-target="textNormalTran"><g opacity="0.55" transform="translate(10.6300048828125,0)"><g><rect fill="#000000" fill-opacity="0" stroke-width="2" x="0" y="0" width="150" height="136.67052381256096" class="image-rect"/> <svg x="0" y="0" width="150" height="136.67052381256096" filtersec="colorsb8065739196" class="image-svg-svg primary" style="overflow: visible;"><svg xmlns="http://www.w3.org/2000/svg" viewBox="0 0 228.1099853515625 207.8400115966797"><path fill="#333333" d="M150.97 171.15l56.46 24.97 20.68-15.08-93.37-162.2 16.23 152.31z"/><path fill="#fb9302" d="M150.97 171.15L134.74 18.84l50.49 127.75-34.26 24.56z"/><path fill="#f64d45" d="M150.97 171.15l56.46 24.97 20.68-15.08-42.88-34.45-34.26 24.56z"/><path fill="#333333" d="M51.34 145.74L1.48 182.15l2.71 25.45 187.16.24-140.01-62.1z"/><path fill="#fb9302" d="M51.34 145.74l140.01 62.1-135.87-20.15-4.14-41.95z"/><path fill="#f64d45" d="M123.79 71.76l-6.61-61.39L93.78 0 0 161.96l123.79-90.2z"/><path fill="#333333" d="M123.79 71.76L0 161.96 85.39 54.37l38.4 17.39z"/><path fill="#fb9302" d="M123.79 71.76l-6.61-61.39L93.78 0l-8.39 54.37 38.4 17.39z"/><path fill="#f64d45" d="M55.48 187.69l-.06.02L4.19 207.6l187.16.24-135.87-20.15z"/></svg></svg> </g></g> <g transform="translate(0,40.034589767456055)"><g fill-rule="" class="tp-name" transform="translate(0,0)"><g transform="scale(1)"><g><path d="M11.67-44.16L22.39-13.25 33.12-44.16 45.42-44.16 28.7 0 16.09 0-0.63-44.16 11.67-44.16ZM54.88-7.88L52.04 0 39.74 0 56.46-44.16 69.07-44.16 85.79 0 73.49 0 70.65-7.88 54.88-7.88ZM62.76-30.91L57.72-16.09 67.81-16.09 62.76-30.91ZM123.95-8.83L123.95 0 88.94 0 88.94-44.16 123.95-44.16 123.95-35.32 100.3-35.32 100.3-26.81 118.91-26.81 118.91-17.98 100.3-17.98 100.3-8.83 123.95-8.83ZM139.72-7.88L136.88 0 124.58 0 141.3-44.16 153.91-44.16 170.63 0 158.33 0 155.49-7.88 139.72-7.88ZM147.61-30.91L142.56-16.09 152.65-16.09 147.61-30.91Z" transform="translate(0.6299999952316284, 44.15999984741211)"/></g> </g></g> <g fill-rule="" class="tp-slogan" fill="#000000" transform="translate(4.295005798339844,50.15999984741211)"><rect width="0"/> <rect x="165.6699981689453" width="0"/> <g transform="translate(0,0)"><g transform="scale(1)"><path d="M2.26 0L1.92 0L0.08-6.35L1.07-6.35L2.62-1.06L2.26 0ZM2.87-2.10L2.78-2.10L2.34-3.62L3.22-6.35L4.22-6.35L2.87-2.10ZM5.65 0L4.67 0L4.67-6.35L5.65-6.35L5.65 0ZM8.39 0.03L8.39 0.03L8.39-0.88Q8.51-0.88 8.66-0.95Q8.81-1.02 8.95-1.15Q9.08-1.27 9.17-1.44Q9.27-1.60 9.27-1.81L9.27-1.81Q9.27-2.09 9.11-2.29Q8.95-2.48 8.71-2.61Q8.47-2.74 8.21-2.82Q7.95-2.90 7.74-2.96Q7.52-3.01 7.42-3.04L7.42-3.04Q7.14-3.14 6.89-3.34Q6.63-3.54 6.47-3.86Q6.31-4.18 6.31-4.61L6.31-4.61Q6.31-5.09 6.49-5.42Q6.67-5.75 6.94-5.95Q7.20-6.16 7.47-6.25Q7.74-6.35 7.91-6.35L7.91-6.35L7.91-5.43Q7.83-5.41 7.71-5.36Q7.60-5.30 7.49-5.20Q7.39-5.09 7.32-4.95Q7.24-4.81 7.24-4.62L7.24-4.62Q7.24-4.41 7.36-4.26Q7.48-4.11 7.67-4.01Q7.87-3.91 8.11-3.83Q8.35-3.74 8.60-3.67Q8.86-3.59 9.07-3.48L9.07-3.48Q9.37-3.35 9.64-3.15Q9.90-2.95 10.07-2.64Q10.24-2.34 10.24-1.89L10.24-1.89Q10.24-1.38 9.98-0.94Q9.73-0.51 9.31-0.24Q8.88 0.03 8.39 0.03ZM7.91-0.88L7.91 0.03Q7.53 0.03 7.23-0.13Q6.93-0.28 6.70-0.52Q6.48-0.75 6.36-1.00Q6.24-1.24 6.24-1.43L6.24-1.43L7.13-1.74Q7.15-1.49 7.28-1.30Q7.42-1.12 7.59-1.02Q7.76-0.92 7.91-0.88L7.91-0.88ZM9.98-5.01L9.08-4.71Q9.05-4.95 8.93-5.10Q8.80-5.25 8.66-5.33Q8.51-5.41 8.39-5.43L8.39-5.43L8.39-6.35Q8.75-6.35 9.04-6.20Q9.33-6.06 9.54-5.84Q9.75-5.62 9.86-5.39Q9.97-5.17 9.98-5.01L9.98-5.01ZM12.57-0.93L12.57 0.05Q12.37 0.05 12.06-0.05Q11.76-0.15 11.46-0.36Q11.17-0.57 10.97-0.92Q10.77-1.26 10.77-1.75L10.77-1.75L10.77-6.35L11.75-6.35L11.75-1.75Q11.75-1.52 11.85-1.36Q11.96-1.21 12.10-1.11Q12.25-1.02 12.38-0.97Q12.51-0.93 12.57-0.93L12.57-0.93ZM13.03 0.05L13.03 0.05L13.03-0.93Q13.09-0.93 13.22-0.97Q13.35-1.02 13.50-1.11Q13.64-1.21 13.75-1.36Q13.85-1.51 13.85-1.75L13.85-1.75L13.85-6.35L14.82-6.35L14.82-1.75Q14.82-1.26 14.62-0.92Q14.42-0.57 14.13-0.36Q13.84-0.15 13.54-0.05Q13.24 0.05 13.03 0.05ZM19.43 0L18.46 0L18.25-0.92L17.06-0.92L17.26-1.87L18.00-1.87L17.01-6.35L17.97-6.35L19.43 0ZM16.38 0L15.42 0L16.62-5.33L16.76-5.33L17.15-3.49L16.38 0ZM23.41 0L20.00 0L20.00-6.35L20.98-6.35L20.98-0.96L23.41-0.96L23.41 0ZM27.34 0L23.93 0L23.93-6.35L24.91-6.35L24.91-0.96L27.34-0.96L27.34 0ZM30.01 0L29.00 0L29.00-2.28L27.66-6.35L28.67-6.35L30.01-2.29L30.01 0ZM30.33-2.94L30.27-2.94L29.82-4.50L30.52-6.35L31.53-6.35L30.33-2.94ZM38.09 0L37.12 0L36.92-0.92L35.73-0.92L35.93-1.87L36.66-1.87L35.67-6.35L36.63-6.35L38.09 0ZM35.05 0L34.09 0L35.28-5.33L35.43-5.33L35.82-3.49L35.05 0ZM40.44-0.92L40.44 0.05Q39.95 0.05 39.61-0.14Q39.26-0.32 39.05-0.59Q38.84-0.87 38.74-1.16Q38.65-1.44 38.65-1.64L38.65-1.64L38.65-4.70Q38.65-4.90 38.75-5.19Q38.85-5.48 39.06-5.75Q39.26-6.02 39.61-6.21Q39.95-6.39 40.44-6.39L40.44-6.39L40.44-5.42Q40.21-5.42 40.05-5.34Q39.90-5.25 39.80-5.12Q39.71-5.00 39.66-4.88Q39.62-4.77 39.62-4.70L39.62-4.70L39.62-1.64Q39.62-1.57 39.66-1.46Q39.71-1.34 39.80-1.21Q39.90-1.09 40.06-1.01Q40.22-0.92 40.44-0.92L40.44-0.92ZM40.90 0.05L40.90 0.05L40.90-0.92Q41.02-0.94 41.16-0.99Q41.30-1.04 41.43-1.15Q41.55-1.26 41.60-1.42L41.60-1.42Q41.63-1.50 41.64-1.58Q41.65-1.67 41.65-1.74L41.65-1.74Q41.66-1.79 41.66-1.82Q41.66-1.85 41.66-1.88L41.66-1.88L42.60-1.65Q42.60-1.17 42.35-0.78Q42.10-0.40 41.72-0.18Q41.33 0.05 40.90 0.05ZM42.60-4.68L41.65-4.43Q41.65-4.47 41.65-4.51Q41.65-4.54 41.65-4.58L41.65-4.58Q41.65-4.65 41.64-4.73Q41.63-4.80 41.60-4.88L41.60-4.88Q41.54-5.04 41.44-5.15Q41.34-5.26 41.24-5.31Q41.13-5.37 41.04-5.39Q40.95-5.41 40.90-5.42L40.90-5.42L40.90-6.39Q41.22-6.39 41.52-6.25Q41.82-6.10 42.06-5.86Q42.31-5.62 42.45-5.31Q42.60-5.00 42.60-4.68L42.60-4.68ZM44.98-0.92L44.98 0.05Q44.49 0.05 44.15-0.14Q43.81-0.32 43.59-0.59Q43.38-0.87 43.28-1.16Q43.19-1.44 43.19-1.64L43.19-1.64L43.19-4.70Q43.19-4.90 43.29-5.19Q43.39-5.48 43.60-5.75Q43.81-6.02 44.15-6.21Q44.49-6.39 44.98-6.39L44.98-6.39L44.98-5.42Q44.75-5.42 44.59-5.34Q44.44-5.25 44.35-5.12Q44.25-5.00 44.20-4.88Q44.16-4.77 44.16-4.70L44.16-4.70L44.16-1.64Q44.16-1.57 44.20-1.46Q44.25-1.34 44.35-1.21Q44.44-1.09 44.60-1.01Q44.76-0.92 44.98-0.92L44.98-0.92ZM45.45 0.05L45.45 0.05L45.45-0.92Q45.56-0.94 45.70-0.99Q45.85-1.04 45.97-1.15Q46.09-1.26 46.14-1.42L46.14-1.42Q46.17-1.50 46.18-1.58Q46.19-1.67 46.19-1.74L46.19-1.74Q46.20-1.79 46.20-1.82Q46.20-1.85 46.20-1.88L46.20-1.88L47.14-1.65Q47.14-1.17 46.89-0.78Q46.64-0.40 46.26-0.18Q45.87 0.05 45.45 0.05ZM47.14-4.68L46.19-4.43Q46.19-4.47 46.19-4.51Q46.19-4.54 46.19-4.58L46.19-4.58Q46.19-4.65 46.18-4.73Q46.17-4.80 46.14-4.88L46.14-4.88Q46.08-5.04 45.98-5.15Q45.88-5.26 45.78-5.31Q45.67-5.37 45.58-5.39Q45.49-5.41 45.45-5.42L45.45-5.42L45.45-6.39Q45.76-6.39 46.06-6.25Q46.36-6.10 46.61-5.86Q46.85-5.62 47.00-5.31Q47.14-5.00 47.14-4.68L47.14-4.68ZM51.05 0L47.75 0L47.75-6.35L51.05-6.35L51.05-5.39L48.73-5.39L48.73-3.64L50.20-3.64L50.20-2.67L48.73-2.67L48.73-0.97L51.05-0.97L51.05 0ZM53.76 0.03L53.76 0.03L53.76-0.88Q53.89-0.88 54.04-0.95Q54.19-1.02 54.32-1.15Q54.46-1.27 54.55-1.44Q54.64-1.60 54.64-1.81L54.64-1.81Q54.64-2.09 54.48-2.29Q54.32-2.48 54.08-2.61Q53.84-2.74 53.58-2.82Q53.32-2.90 53.11-2.96Q52.90-3.01 52.80-3.04L52.80-3.04Q52.52-3.14 52.26-3.34Q52.00-3.54 51.84-3.86Q51.68-4.18 51.68-4.61L51.68-4.61Q51.68-5.09 51.87-5.42Q52.05-5.75 52.31-5.95Q52.57-6.16 52.84-6.25Q53.12-6.35 53.29-6.35L53.29-6.35L53.29-5.43Q53.21-5.41 53.09-5.36Q52.97-5.30 52.87-5.20Q52.76-5.09 52.69-4.95Q52.62-4.81 52.62-4.62L52.62-4.62Q52.62-4.41 52.74-4.26Q52.85-4.11 53.05-4.01Q53.24-3.91 53.48-3.83Q53.72-3.74 53.98-3.67Q54.23-3.59 54.45-3.48L54.45-3.48Q54.75-3.35 55.01-3.15Q55.27-2.95 55.44-2.64Q55.61-2.34 55.61-1.89L55.61-1.89Q55.61-1.38 55.36-0.94Q55.10-0.51 54.68-0.24Q54.26 0.03 53.76 0.03ZM53.29-0.88L53.29 0.03Q52.91 0.03 52.60-0.13Q52.30-0.28 52.08-0.52Q51.86-0.75 51.73-1.00Q51.61-1.24 51.61-1.43L51.61-1.43L52.50-1.74Q52.53-1.49 52.66-1.30Q52.79-1.12 52.96-1.02Q53.13-0.92 53.29-0.88L53.29-0.88ZM55.36-5.01L54.46-4.71Q54.42-4.95 54.30-5.10Q54.18-5.25 54.03-5.33Q53.89-5.41 53.76-5.43L53.76-5.43L53.76-6.35Q54.12-6.35 54.41-6.20Q54.70-6.06 54.91-5.84Q55.12-5.62 55.23-5.39Q55.35-5.17 55.36-5.01L55.36-5.01ZM58.18 0.03L58.18 0.03L58.18-0.88Q58.31-0.88 58.46-0.95Q58.61-1.02 58.75-1.15Q58.88-1.27 58.97-1.44Q59.06-1.60 59.06-1.81L59.06-1.81Q59.06-2.09 58.90-2.29Q58.75-2.48 58.51-2.61Q58.27-2.74 58.01-2.82Q57.75-2.90 57.54-2.96Q57.32-3.01 57.22-3.04L57.22-3.04Q56.94-3.14 56.68-3.34Q56.43-3.54 56.27-3.86Q56.11-4.18 56.11-4.61L56.11-4.61Q56.11-5.09 56.29-5.42Q56.47-5.75 56.73-5.95Q57.00-6.16 57.27-6.25Q57.54-6.35 57.71-6.35L57.71-6.35L57.71-5.43Q57.63-5.41 57.51-5.36Q57.40-5.30 57.29-5.20Q57.19-5.09 57.11-4.95Q57.04-4.81 57.04-4.62L57.04-4.62Q57.04-4.41 57.16-4.26Q57.28-4.11 57.47-4.01Q57.67-3.91 57.91-3.83Q58.15-3.74 58.40-3.67Q58.66-3.59 58.87-3.48L58.87-3.48Q59.17-3.35 59.43-3.15Q59.70-2.95 59.87-2.64Q60.03-2.34 60.03-1.89L60.03-1.89Q60.03-1.38 59.78-0.94Q59.53-0.51 59.10-0.24Q58.68 0.03 58.18 0.03ZM57.71-0.88L57.71 0.03Q57.33 0.03 57.03-0.13Q56.72-0.28 56.50-0.52Q56.28-0.75 56.16-1.00Q56.04-1.24 56.04-1.43L56.04-1.43L56.92-1.74Q56.95-1.49 57.08-1.30Q57.21-1.12 57.39-1.02Q57.56-0.92 57.71-0.88L57.71-0.88ZM59.78-5.01L58.88-4.71Q58.85-4.95 58.72-5.10Q58.60-5.25 58.46-5.33Q58.31-5.41 58.18-5.43L58.18-5.43L58.18-6.35Q58.55-6.35 58.84-6.20Q59.13-6.06 59.34-5.84Q59.54-5.62 59.66-5.39Q59.77-5.17 59.78-5.01L59.78-5.01ZM61.61 0L60.63 0L60.63-6.35L61.61-6.35L61.61 0ZM64.29 0L63.73 0L63.73-0.86L64.05-0.86Q64.37-0.86 64.58-0.95Q64.80-1.03 64.94-1.18Q65.08-1.33 65.15-1.51Q65.21-1.70 65.21-1.87L65.21-1.87Q65.21-2.22 64.98-2.49Q64.76-2.76 64.26-2.76L64.26-2.76L63.73-2.76L63.73-3.61L64.26-3.61Q64.60-3.61 64.81-3.73Q65.01-3.85 65.11-4.05Q65.20-4.25 65.20-4.49L65.20-4.49Q65.20-4.72 65.09-4.95Q64.97-5.18 64.74-5.33Q64.51-5.48 64.15-5.48L64.15-5.48L63.73-5.48L63.73-6.35L64.27-6.35Q64.77-6.35 65.14-6.19Q65.50-6.03 65.73-5.77Q65.95-5.50 66.06-5.19Q66.17-4.87 66.17-4.55L66.17-4.55Q66.17-4.12 66.00-3.75Q65.83-3.39 65.55-3.18L65.55-3.18Q65.74-3.04 65.88-2.83Q66.02-2.63 66.10-2.37Q66.18-2.11 66.18-1.80L66.18-1.80Q66.18-1.33 65.97-0.92Q65.75-0.51 65.33-0.25Q64.91 0 64.29 0L64.29 0ZM63.26 0L62.29 0L62.29-6.35L63.26-6.35L63.26 0ZM70.27 0L66.86 0L66.86-6.35L67.84-6.35L67.84-0.96L70.27-0.96L70.27 0ZM74.09 0L70.79 0L70.79-6.35L74.09-6.35L74.09-5.39L71.77-5.39L71.77-3.64L73.24-3.64L73.24-2.67L71.77-2.67L71.77-0.97L74.09-0.97L74.09 0ZM80.23 0L76.93 0L76.93-6.35L80.23-6.35L80.23-5.39L77.91-5.39L77.91-3.64L79.38-3.64L79.38-2.67L77.91-2.67L77.91-0.97L80.23-0.97L80.23 0ZM83.88-2.22L81.01-2.22L81.01-3.10L83.88-3.10L83.88-2.22ZM86.44-0.92L86.44 0.05Q85.95 0.05 85.61-0.14Q85.26-0.32 85.05-0.59Q84.84-0.87 84.74-1.16Q84.65-1.44 84.65-1.64L84.65-1.64L84.65-4.70Q84.65-4.90 84.75-5.19Q84.85-5.48 85.05-5.75Q85.26-6.02 85.61-6.21Q85.95-6.39 86.44-6.39L86.44-6.39L86.44-5.42Q86.21-5.42 86.05-5.34Q85.90-5.25 85.80-5.12Q85.71-5.00 85.66-4.88Q85.62-4.77 85.62-4.70L85.62-4.70L85.62-1.64Q85.62-1.57 85.66-1.46Q85.71-1.34 85.80-1.21Q85.90-1.09 86.06-1.01Q86.22-0.92 86.44-0.92L86.44-0.92ZM86.90 0.05L86.90 0.05L86.90-0.92Q87.02-0.94 87.16-0.99Q87.30-1.04 87.43-1.15Q87.55-1.26 87.60-1.42L87.60-1.42Q87.63-1.50 87.64-1.58Q87.65-1.67 87.65-1.74L87.65-1.74Q87.66-1.79 87.66-1.82Q87.66-1.85 87.66-1.88L87.66-1.88L88.60-1.65Q88.60-1.17 88.35-0.78Q88.10-0.40 87.72-0.18Q87.33 0.05 86.90 0.05ZM88.60-4.68L87.65-4.43Q87.65-4.47 87.65-4.51Q87.65-4.54 87.65-4.58L87.65-4.58Q87.65-4.65 87.64-4.73Q87.63-4.80 87.60-4.88L87.60-4.88Q87.54-5.04 87.44-5.15Q87.34-5.26 87.23-5.31Q87.13-5.37 87.04-5.39Q86.95-5.41 86.90-5.42L86.90-5.42L86.90-6.39Q87.22-6.39 87.52-6.25Q87.82-6.10 88.06-5.86Q88.31-5.62 88.45-5.31Q88.60-5.00 88.60-4.68L88.60-4.68ZM91.54 0.05L91.54 0.05L91.54-0.93Q91.68-0.93 91.83-1.00Q91.98-1.06 92.11-1.18Q92.24-1.31 92.33-1.47Q92.41-1.64 92.41-1.85L92.41-1.85L92.41-4.49Q92.41-4.66 92.35-4.82Q92.29-4.99 92.18-5.12Q92.06-5.26 91.90-5.34Q91.75-5.42 91.54-5.42L91.54-5.42L91.54-6.39Q91.94-6.39 92.28-6.24Q92.62-6.08 92.86-5.82Q93.11-5.57 93.25-5.25Q93.39-4.94 93.39-4.63L93.39-4.63L93.39-1.82Q93.39-1.40 93.23-1.05Q93.08-0.71 92.82-0.46Q92.56-0.22 92.23-0.09Q91.89 0.05 91.54 0.05ZM91.04-0.93L91.04 0.05Q90.71 0.05 90.39-0.09Q90.07-0.22 89.80-0.47Q89.52-0.72 89.36-1.06Q89.20-1.41 89.20-1.82L89.20-1.82L89.20-4.63Q89.20-4.95 89.33-5.26Q89.47-5.58 89.72-5.83Q89.97-6.08 90.30-6.24Q90.64-6.39 91.05-6.39L91.05-6.39L91.05-5.42Q90.84-5.42 90.68-5.34Q90.52-5.26 90.41-5.12Q90.29-4.98 90.24-4.81Q90.18-4.65 90.18-4.49L90.18-4.49L90.18-1.85Q90.18-1.64 90.26-1.47Q90.34-1.30 90.47-1.18Q90.59-1.06 90.74-1.00Q90.89-0.93 91.04-0.93L91.04-0.93ZM97.21 0L96.51 0L94.13-5.72L94.13-6.35L94.91-6.35L96.86-1.61L98.15-4.52L98.24-4.52L98.24-2.32L97.21 0ZM95.11 0L94.13 0L94.13-4.34L94.21-4.34L95.11-2.18L95.11 0ZM99.68 0L98.70 0L98.70-6.35L99.68-6.35L99.68 0ZM103.52 0L102.82 0L100.44-5.72L100.44-6.35L101.22-6.35L103.17-1.61L104.46-4.52L104.55-4.52L104.55-2.32L103.52 0ZM101.42 0L100.44 0L100.44-4.34L100.52-4.34L101.42-2.18L101.42 0ZM105.99 0L105.01 0L105.01-6.35L105.99-6.35L105.99 0ZM110.04 0L106.74 0L106.74-6.35L110.04-6.35L110.04-5.39L107.72-5.39L107.72-3.64L109.19-3.64L109.19-2.67L107.72-2.67L107.72-0.97L110.04-0.97L110.04 0ZM114.76 0L113.85 0L113.71-1.61Q113.68-1.99 113.59-2.22Q113.50-2.46 113.32-2.57Q113.13-2.69 112.80-2.69L112.80-2.69L112.22-2.69L112.22-3.56L112.77-3.56Q113.24-3.56 113.45-3.82Q113.67-4.07 113.67-4.50L113.67-4.50Q113.67-4.95 113.42-5.19Q113.17-5.44 112.70-5.44L112.70-5.44L112.22-5.44L112.22-6.35L112.81-6.35Q113.35-6.34 113.75-6.14Q114.15-5.94 114.37-5.55Q114.59-5.17 114.59-4.59L114.59-4.59Q114.59-4.06 114.42-3.70Q114.26-3.35 113.97-3.15L113.97-3.15Q114.26-2.99 114.41-2.67Q114.57-2.35 114.61-1.97L114.61-1.97L114.76 0ZM111.75 0L110.77 0L110.77-6.35L111.75-6.35L111.75 0ZM117.13-0.92L117.13 0.05Q116.64 0.05 116.30-0.14Q115.95-0.32 115.74-0.59Q115.52-0.87 115.43-1.16Q115.33-1.44 115.33-1.64L115.33-1.64L115.33-4.70Q115.33-4.90 115.43-5.19Q115.53-5.48 115.74-5.75Q115.95-6.02 116.30-6.21Q116.64-6.39 117.13-6.39L117.13-6.39L117.13-5.42Q116.89-5.42 116.74-5.34Q116.59-5.25 116.49-5.12Q116.39-5.00 116.35-4.88Q116.30-4.77 116.30-4.70L116.30-4.70L116.30-1.64Q116.30-1.57 116.35-1.46Q116.39-1.34 116.49-1.21Q116.59-1.09 116.74-1.01Q116.90-0.92 117.13-0.92L117.13-0.92ZM117.59 0.05L117.59 0.05L117.59-0.92Q117.71-0.94 117.85-0.99Q117.99-1.04 118.11-1.15Q118.24-1.26 118.29-1.42L118.29-1.42Q118.32-1.50 118.33-1.58Q118.33-1.67 118.33-1.74L118.33-1.74Q118.34-1.79 118.34-1.82Q118.34-1.85 118.34-1.88L118.34-1.88L119.29-1.65Q119.29-1.17 119.04-0.78Q118.79-0.40 118.40-0.18Q118.02 0.05 117.59 0.05ZM119.29-4.68L118.33-4.43Q118.33-4.47 118.33-4.51Q118.33-4.54 118.33-4.58L118.33-4.58Q118.33-4.65 118.33-4.73Q118.32-4.80 118.29-4.88L118.29-4.88Q118.23-5.04 118.13-5.15Q118.03-5.26 117.92-5.31Q117.82-5.37 117.73-5.39Q117.64-5.41 117.59-5.42L117.59-5.42L117.59-6.39Q117.91-6.39 118.21-6.25Q118.51-6.10 118.75-5.86Q119.00-5.62 119.14-5.31Q119.29-5.00 119.29-4.68L119.29-4.68ZM123.19 0L119.89 0L119.89-6.35L123.19-6.35L123.19-5.39L120.87-5.39L120.87-3.64L122.34-3.64L122.34-2.67L120.87-2.67L120.87-0.97L123.19-0.97L123.19 0ZM129.95 0L128.98 0L128.77-0.92L127.58-0.92L127.78-1.87L128.52-1.87L127.53-6.35L128.49-6.35L129.95 0ZM126.90 0L125.94 0L127.14-5.33L127.28-5.33L127.67-3.49L126.90 0ZM132.50 0.03L132.50 0.03L132.50-0.88Q132.63-0.88 132.78-0.95Q132.93-1.02 133.07-1.15Q133.20-1.27 133.29-1.44Q133.38-1.60 133.38-1.81L133.38-1.81Q133.38-2.09 133.23-2.29Q133.07-2.48 132.83-2.61Q132.59-2.74 132.33-2.82Q132.07-2.90 131.86-2.96Q131.64-3.01 131.54-3.04L131.54-3.04Q131.26-3.14 131.00-3.34Q130.75-3.54 130.59-3.86Q130.43-4.18 130.43-4.61L130.43-4.61Q130.43-5.09 130.61-5.42Q130.79-5.75 131.05-5.95Q131.32-6.16 131.59-6.25Q131.86-6.35 132.03-6.35L132.03-6.35L132.03-5.43Q131.95-5.41 131.83-5.36Q131.72-5.30 131.61-5.20Q131.51-5.09 131.43-4.95Q131.36-4.81 131.36-4.62L131.36-4.62Q131.36-4.41 131.48-4.26Q131.60-4.11 131.79-4.01Q131.99-3.91 132.23-3.83Q132.47-3.74 132.72-3.67Q132.98-3.59 133.19-3.48L133.19-3.48Q133.49-3.35 133.76-3.15Q134.02-2.95 134.19-2.64Q134.35-2.34 134.35-1.89L134.35-1.89Q134.35-1.38 134.10-0.94Q133.85-0.51 133.42-0.24Q133.00 0.03 132.50 0.03ZM132.03-0.88L132.03 0.03Q131.65 0.03 131.35-0.13Q131.05-0.28 130.82-0.52Q130.60-0.75 130.48-1.00Q130.36-1.24 130.36-1.43L130.36-1.43L131.24-1.74Q131.27-1.49 131.40-1.30Q131.53-1.12 131.71-1.02Q131.88-0.92 132.03-0.88L132.03-0.88ZM134.10-5.01L133.20-4.71Q133.17-4.95 133.04-5.10Q132.92-5.25 132.78-5.33Q132.63-5.41 132.50-5.43L132.50-5.43L132.50-6.35Q132.87-6.35 133.16-6.20Q133.45-6.06 133.66-5.84Q133.86-5.62 133.98-5.39Q134.09-5.17 134.10-5.01L134.10-5.01ZM136.93 0.03L136.93 0.03L136.93-0.88Q137.06-0.88 137.21-0.95Q137.35-1.02 137.49-1.15Q137.63-1.27 137.72-1.44Q137.81-1.60 137.81-1.81L137.81-1.81Q137.81-2.09 137.65-2.29Q137.49-2.48 137.25-2.61Q137.01-2.74 136.75-2.82Q136.49-2.90 136.28-2.96Q136.07-3.01 135.97-3.04L135.97-3.04Q135.69-3.14 135.43-3.34Q135.17-3.54 135.01-3.86Q134.85-4.18 134.85-4.61L134.85-4.61Q134.85-5.09 135.03-5.42Q135.22-5.75 135.48-5.95Q135.74-6.16 136.01-6.25Q136.29-6.35 136.46-6.35L136.46-6.35L136.46-5.43Q136.38-5.41 136.26-5.36Q136.14-5.30 136.04-5.20Q135.93-5.09 135.86-4.95Q135.79-4.81 135.79-4.62L135.79-4.62Q135.79-4.41 135.90-4.26Q136.02-4.11 136.22-4.01Q136.41-3.91 136.65-3.83Q136.89-3.74 137.15-3.67Q137.40-3.59 137.62-3.48L137.62-3.48Q137.92-3.35 138.18-3.15Q138.44-2.95 138.61-2.64Q138.78-2.34 138.78-1.89L138.78-1.89Q138.78-1.38 138.52-0.94Q138.27-0.51 137.85-0.24Q137.43 0.03 136.93 0.03ZM136.46-0.88L136.46 0.03Q136.08 0.03 135.77-0.13Q135.47-0.28 135.25-0.52Q135.02-0.75 134.90-1.00Q134.78-1.24 134.78-1.43L134.78-1.43L135.67-1.74Q135.70-1.49 135.83-1.30Q135.96-1.12 136.13-1.02Q136.30-0.92 136.46-0.88L136.46-0.88ZM138.52-5.01L137.63-4.71Q137.59-4.95 137.47-5.10Q137.35-5.25 137.20-5.33Q137.06-5.41 136.93-5.43L136.93-5.43L136.93-6.35Q137.29-6.35 137.58-6.20Q137.87-6.06 138.08-5.84Q138.29-5.62 138.40-5.39Q138.52-5.17 138.52-5.01L138.52-5.01ZM140.36 0L139.38 0L139.38-6.35L140.36-6.35L140.36 0ZM143.09 0.03L143.09 0.03L143.09-0.88Q143.22-0.88 143.37-0.95Q143.52-1.02 143.66-1.15Q143.79-1.27 143.88-1.44Q143.97-1.60 143.97-1.81L143.97-1.81Q143.97-2.09 143.81-2.29Q143.66-2.48 143.42-2.61Q143.18-2.74 142.92-2.82Q142.66-2.90 142.45-2.96Q142.23-3.01 142.13-3.04L142.13-3.04Q141.85-3.14 141.59-3.34Q141.33-3.54 141.18-3.86Q141.02-4.18 141.02-4.61L141.02-4.61Q141.02-5.09 141.20-5.42Q141.38-5.75 141.64-5.95Q141.91-6.16 142.18-6.25Q142.45-6.35 142.62-6.35L142.62-6.35L142.62-5.43Q142.54-5.41 142.42-5.36Q142.30-5.30 142.20-5.20Q142.10-5.09 142.02-4.95Q141.95-4.81 141.95-4.62L141.95-4.62Q141.95-4.41 142.07-4.26Q142.19-4.11 142.38-4.01Q142.58-3.91 142.82-3.83Q143.06-3.74 143.31-3.67Q143.56-3.59 143.78-3.48L143.78-3.48Q144.08-3.35 144.34-3.15Q144.61-2.95 144.78-2.64Q144.94-2.34 144.94-1.89L144.94-1.89Q144.94-1.38 144.69-0.94Q144.44-0.51 144.01-0.24Q143.59 0.03 143.09 0.03ZM142.62-0.88L142.62 0.03Q142.24 0.03 141.94-0.13Q141.63-0.28 141.41-0.52Q141.19-0.75 141.07-1.00Q140.94-1.24 140.94-1.43L140.94-1.43L141.83-1.74Q141.86-1.49 141.99-1.30Q142.12-1.12 142.30-1.02Q142.47-0.92 142.62-0.88L142.62-0.88ZM144.69-5.01L143.79-4.71Q143.76-4.95 143.63-5.10Q143.51-5.25 143.37-5.33Q143.22-5.41 143.09-5.43L143.09-5.43L143.09-6.35Q143.46-6.35 143.75-6.20Q144.04-6.06 144.24-5.84Q144.45-5.62 144.57-5.39Q144.68-5.17 144.69-5.01L144.69-5.01ZM147.76 0L146.78 0L146.78-5.39L145.31-5.39L145.31-6.35L149.24-6.35L149.24-5.39L147.76-5.39L147.76 0ZM153.67 0L152.70 0L152.49-0.92L151.31-0.92L151.51-1.87L152.24-1.87L151.25-6.35L152.21-6.35L153.67 0ZM150.63 0L149.67 0L150.86-5.33L151.01-5.33L151.40-3.49L150.63 0ZM158.29 0L157.82 0L154.25-5.71L154.25-6.35L155.07-6.35L158.29-1.18L158.29 0ZM155.23 0L154.25 0L154.25-4.77L154.33-4.77L155.23-3.32L155.23 0ZM158.29-2.13L158.22-2.13L157.31-3.59L157.31-6.35L158.29-6.35L158.29-2.13ZM161.27 0L160.29 0L160.29-5.39L158.82-5.39L158.82-6.35L162.75-6.35L162.75-5.39L161.27-5.39L161.27 0Z" transform="translate(-0.0815915386552506, 6.391337194661296)"/></g></g></g></g></g></g><defs v-gra="od"/>
  </svg>
</svg>


